<?xml version="1.0" encoding="UTF-8"?><svg id="Layer_1" xmlns="http://www.w3.org/2000/svg" viewBox="0 0 531.1 93.51"><path d="M334.65,47.01c.22-1.04,.35-2.14,.35-3.31s-.13-2.27-.35-3.31v6.61Z"/><path d="M2.49,81.72v-5.52l-2.49,1.3c.68,1.49,1.53,2.89,2.49,4.21Z"/><path d="M2.49,52.64v-19.74c-1.03,3-1.59,6.33-1.59,9.9s.56,6.85,1.59,9.83Z"/><path d="M3.49,30.41v24.7c1.36,2.92,3.22,5.47,5.51,7.55V22.88c-2.3,2.07-4.16,4.61-5.51,7.53Z"/><path d="M3.49,83.01c1.57,1.9,3.42,3.59,5.51,5.03v-15.26l-5.51,2.89v7.33Z"/><path d="M10,72.26v16.42c1.71,1.07,3.55,1.98,5.51,2.71v-19.27c-.46-.67-.87-1.37-1.21-2.13l-4.3,2.26Z"/><path d="M10,63.52c1.65,1.33,3.5,2.44,5.51,3.29V18.78c-2.02,.84-3.87,1.94-5.51,3.26V63.52Z"/><path d="M16.51,73.42v18.35c1.76,.59,3.6,1.03,5.51,1.32v-15.7c-2.1-.89-4-2.24-5.51-3.97Z"/><path d="M16.51,67.2c1.73,.64,3.57,1.09,5.51,1.35v-16.46c-2.76-1.9-4.52-5.06-4.52-9.3s1.76-7.39,4.52-9.3V17.05c-1.95,.26-3.79,.71-5.51,1.33v48.81Z"/><path d="M23.03,16.94v15.96c1.61-.87,3.48-1.37,5.51-1.47v-14.51c-.85-.08-1.73-.12-2.64-.12-.98,0-1.94,.05-2.88,.14Z"/><path d="M23.03,77.77v15.46c1.43,.18,2.89,.27,4.38,.27,.38,0,.76-.01,1.14-.02v-14.9c-.21,0-.42,.02-.64,.02-1.65,0-3.3-.29-4.88-.84Z"/><path d="M23.03,68.67c.91,.09,1.83,.13,2.78,.13s1.85-.04,2.74-.12v-14.51c-2.03-.1-3.9-.6-5.51-1.47v15.96Z"/><path d="M29.54,31.41c2.05,.03,3.92,.43,5.51,1.19v-14.17c-1.62-.66-3.48-1.13-5.51-1.39v14.38Z"/><path d="M29.54,68.59c2.04-.25,3.89-.71,5.51-1.39v-14.19c-1.6,.76-3.46,1.16-5.51,1.19v14.39Z"/><path d="M29.54,93.44c1.89-.1,3.73-.34,5.51-.71v-15.63c-1.6,.78-3.47,1.27-5.51,1.44v14.91Z"/><path d="M41.3,24c-.78-2.11-2.65-3.87-5.25-5.13v14.27c3.01,1.85,4.85,5.14,4.85,9.66s-1.84,7.8-4.85,9.66v14.28c2.03-1.01,3.64-2.39,4.75-4.14v5.3c0,3.9-1.81,6.84-4.75,8.64v15.95c1.93-.46,3.77-1.08,5.51-1.85V18h-.26v6Z"/><path d="M42.57,90.18c2-.97,3.84-2.15,5.51-3.51V18h-5.51V90.18Z"/><path d="M49.08,85.8c2.25-2.04,4.12-4.45,5.51-7.21V18h-5.51V85.8Z"/><path d="M55.59,76.37c1.17-3.02,1.81-6.38,1.81-10.06V18h-1.81v58.37Z"/><path d="M67.62,18h-.22V51.4c0,1.24,.09,2.38,.22,3.48,.2,1.69,.53,3.22,1,4.6,1.17,3.46,3.1,6.02,5.51,7.78V18h-6.51Z"/><path d="M75.13,67.92c1.68,1.04,3.54,1.75,5.51,2.18V18h-5.51v49.92Z"/><path d="M84,48.1V18h-2.36v52.28c1.26,.21,2.55,.32,3.86,.32,.58,0,1.12-.03,1.66-.06v-15.46c-1.98-1.08-3.16-3.29-3.16-6.98Z"/><path d="M88.16,55.52v14.94c2.18-.26,3.97-.85,5.51-1.68v-13.3c-.86,.28-1.82,.44-2.87,.44-.97,0-1.85-.13-2.65-.39Z"/><path d="M99,46.4c0,4.23-1.55,7.26-4.33,8.65v13.13c1.91-1.24,3.43-2.86,4.83-4.68v6.5h.68V18h-1.18v28.4Z"/><rect x="101.18" y="18" width="5.51" height="52"/><rect x="107.7" y="18" width="5.51" height="52"/><rect x="114.21" y="18" width="1.39" height="52"/><path d="M127.6,51.8c0,6.15,1.97,10.82,5.15,13.97V0h-5.15V51.8Z"/><path d="M133.75,66.66c1.61,1.34,3.47,2.34,5.51,3V0h-5.51V66.66Z"/><path d="M144.2,0h-3.94V69.96c1.63,.42,3.35,.64,5.14,.64,.12,0,.25-.01,.37-.01v-16.26c-.98-.98-1.57-2.41-1.57-4.23V0Z"/><path d="M146.77,55.07v15.48c1.81-.11,3.65-.45,5.51-1v-14.23c-.92,.31-1.82,.48-2.69,.48-1.06,0-2.01-.26-2.83-.73Z"/><path d="M153.29,54.94v14.31c1.5-.51,3.01-1.15,4.51-1.94l-3.8-12.7c-.24,.13-.48,.23-.71,.33Z"/><path d="M191.36,63.51l-2.66-8.9c-.96,.51-1.92,.84-2.85,1.03v14.24c1.82-.45,3.67-1.12,5.51-2,.33-.16,.67-.32,1-.49,.05-.02,.09-.04,.14-.07l-.14-.46-1-3.34Z"/><path d="M162.3,51.8c0,4.62,1.11,8.41,3.01,11.34V0h-3.01V51.8Z"/><path d="M166.31,64.52c1.51,1.86,3.39,3.3,5.51,4.31V0h-5.51V64.52Z"/><path d="M172.83,69.26c1.71,.68,3.57,1.12,5.51,1.28V0h-5.51V69.26Z"/><path d="M179.34,52.57v18c.25,0,.5,.03,.76,.03,1.56,0,3.15-.17,4.75-.51v-14.33c-.18,.01-.37,.04-.55,.04-2.3,0-4.16-1.16-4.96-3.23Z"/><rect x="199" y="18" width="5.39" height="74.1"/><rect x="205.39" y="18" width="5.51" height="74.1"/><path d="M215.1,23.4v-5.4h-3.2V92.11h3.7v-27.6c.53,.6,1.14,1.16,1.82,1.67v-15.7c-1.23-1.94-1.92-4.35-1.92-7.07s.69-5.13,1.92-7.07v-15.58c-.98,.8-1.76,1.7-2.32,2.66Z"/><path d="M218.42,35c1.41-1.6,3.28-2.74,5.51-3.26v-14.15c-2.12,.56-3.99,1.39-5.51,2.42v14.99Z"/><path d="M218.42,51.81v15.07c1.58,1.01,3.45,1.8,5.51,2.34v-14.15c-2.23-.52-4.1-1.66-5.51-3.26Z"/><path d="M224.93,55.26v14.19c1.69,.36,3.5,.55,5.37,.55,.05,0,.09,0,.14,0v-15.17c-1.12,.37-2.34,.57-3.64,.57-.65,0-1.27-.06-1.87-.15Z"/><path d="M224.93,17.35v14.2c.6-.09,1.22-.15,1.87-.15,1.31,0,2.53,.2,3.64,.57v-15.17c-.08,0-.16,0-.24,0-1.86,0-3.63,.2-5.27,.55Z"/><path d="M231.44,32.36c2.57,1.15,4.49,3.29,5.51,6.08V17.66c-1.73-.46-3.57-.75-5.51-.83v15.53Z"/><path d="M231.44,54.44v15.53c1.94-.08,3.78-.36,5.51-.83v-20.79c-1.03,2.79-2.95,4.93-5.51,6.08Z"/><path d="M237.96,68.86c2-.64,3.84-1.52,5.51-2.63V20.57c-1.67-1.1-3.51-1.98-5.51-2.62v50.9Z"/><path d="M244.47,21.27v44.25c2.17-1.62,4.02-3.64,5.51-5.96V27.21c-1.49-2.31-3.34-4.32-5.51-5.94Z"/><path d="M250.98,57.85c2.22-4.14,3.42-9.08,3.42-14.45s-1.19-10.34-3.42-14.48v28.93Z"/><path d="M263.4,0V51.8c0,1.99,.23,3.8,.61,5.48,.92,4.02,2.87,7.15,5.51,9.36V0h-6.12Z"/><path d="M270.52,67.41c1.64,1.16,3.5,2.03,5.51,2.55V0h-5.51V67.41Z"/><path d="M280,50.1V0h-2.96V70.18c1.34,.27,2.73,.43,4.17,.43,.45,0,.9-.02,1.35-.05v-15.5c-1.55-.9-2.55-2.6-2.55-4.96Z"/><path d="M283.55,55.5v14.97c1.81-.19,3.65-.59,5.51-1.22v-14.3c-1.25,.56-2.49,.85-3.66,.85-.66,0-1.28-.12-1.85-.3Z"/><path d="M290.06,68.89c1.18-.44,2.36-.97,3.54-1.59l-3.54-11.83v13.42Z"/><path d="M360.7,59.85l-1.4-4.95c-1,.6-2.1,.9-3.2,.9-.31,0-.61-.03-.91-.08v14.49c1.88-.38,3.75-1.06,5.51-2.05,.34-.19,.67-.38,1-.59,.34-.22,.67-.43,1-.67l-1-3.52-1-3.53Z"/><path d="M296.1,43.7c0,2.01,.16,3.95,.48,5.8,.83,4.94,2.73,9.28,5.51,12.72V25.06c-2.81,3.46-4.69,7.83-5.51,12.78-.31,1.88-.48,3.84-.48,5.86Z"/><path d="M303.09,63.37c1.6,1.73,3.45,3.2,5.51,4.34V19.63c-2.08,1.13-3.92,2.57-5.51,4.28V63.37Z"/><path d="M309.6,68.24c1.71,.84,3.55,1.47,5.51,1.87v-18.28c-1.54-2.1-2.41-4.88-2.41-8.12s.87-6.03,2.41-8.12V17.3c-1.98,.39-3.81,1.01-5.51,1.82v49.12Z"/><path d="M316.11,70.28c1.31,.21,2.68,.32,4.09,.32,.48,0,.96-.01,1.43-.04v-14.75c-2.19-.38-4.06-1.37-5.51-2.83v17.3Z"/><path d="M316.11,17.12v17.3c1.46-1.47,3.33-2.45,5.51-2.83v-14.75c-.43-.02-.88-.03-1.33-.03-1.45,0-2.85,.11-4.19,.32Z"/><path d="M322.62,55.95v14.54c1.97-.17,3.82-.55,5.51-1.12v-14.19c-1.33,.53-2.82,.82-4.44,.82-.37,0-.72-.02-1.07-.05Z"/><path d="M322.62,31.45c.35-.03,.71-.05,1.07-.05,1.62,0,3.11,.29,4.44,.82v-14.14c-1.63-.6-3.48-1-5.51-1.18v14.55Z"/><path d="M329.14,18.49v14.2c2.82,1.49,4.77,4.2,5.51,7.71V22.81c-1.27-1.79-3.14-3.27-5.51-4.32Z"/><path d="M329.14,54.72v14.29c2.11-.83,3.96-1.97,5.51-3.37v-18.62c-.75,3.51-2.69,6.22-5.51,7.71Z"/><path d="M335.65,64.65c.91-.98,1.71-2.06,2.35-3.24,.63,2.14,1.74,3.9,3.17,5.3V18h-5.51v46.65Z"/><path d="M342.16,67.59c1.59,1.25,3.47,2.1,5.51,2.58V18h-5.51v49.59Z"/><path d="M351.6,51V18h-2.92v52.37c.92,.15,1.86,.24,2.82,.24,.89,0,1.79-.07,2.69-.2v-14.98c-1.47-.61-2.59-2-2.59-4.42Z"/><polygon points="400.78 18 399.78 18 394.27 18 394.27 32.8 399.78 32.8 400.78 32.8 400.78 18"/><polygon points="361.2 18 361.2 32.8 361.7 32.8 367.22 32.8 367.22 18 361.7 18 361.2 18"/><path d="M371.1,18h-2.88v14.8h2.88v18.6c0,4.16,.95,7.71,2.63,10.59V5.8h-2.63v12.2Z"/><path d="M374.73,63.51c1.46,1.97,3.32,3.55,5.51,4.72V5.8h-5.51V63.51Z"/><path d="M381.24,68.73c1.68,.76,3.53,1.3,5.51,1.59V5.8h-5.51v62.93Z"/><rect x="387.8" y="18" width="5.47" height="14.8"/><path d="M387.8,48.2l-.04,22.24c.89,.09,1.8,.16,2.74,.16s1.85-.06,2.77-.16v-14.83c-3.24-.65-5.47-3.1-5.47-7.42Z"/><path d="M394.27,55.77v14.57c1.85-.25,3.69-.71,5.51-1.35v-14.17c-1.64,.65-3.25,.98-4.68,.98-.28,0-.56-.01-.83-.04Z"/><path d="M400.78,54.39v14.23c1.76-.69,3.5-1.55,5.22-2.62l-3.9-12.3c-.44,.25-.88,.48-1.32,.69Z"/><path d="M412.81,59.04V28.24c-2.48,4.32-3.81,9.62-3.81,15.46s1.35,11.06,3.81,15.34Z"/><path d="M413.81,26.64V60.63c1.52,2.24,3.37,4.16,5.51,5.71V20.99c-2.16,1.53-4,3.44-5.51,5.66Z"/><path d="M420.32,67.01c1.68,1.08,3.53,1.93,5.51,2.54v-23.06c-.15-.89-.24-1.82-.24-2.79s.08-1.9,.24-2.79V17.83c-2,.59-3.84,1.43-5.51,2.48v46.7Z"/><path d="M426.83,37.59c1.15-2.52,3.06-4.39,5.51-5.38v-15.38c-1.94,.06-3.78,.31-5.51,.74v20.03Z"/><path d="M426.83,49.82v20.02c1.74,.45,3.58,.7,5.51,.75v-15.38c-2.46-.99-4.36-2.86-5.51-5.38Z"/><path d="M433.35,55.55v15.05c1.95-.02,3.79-.22,5.51-.61v-14.19c-.72,.13-1.47,.2-2.26,.2-1.16,0-2.24-.16-3.25-.45Z"/><path d="M433.35,31.86c1.01-.29,2.09-.45,3.25-.45,.79,0,1.54,.07,2.26,.2v-14.17c-1.67-.4-3.51-.62-5.51-.63v15.05Z"/><path d="M439.86,55.57v14.16c2.04-.56,3.89-1.38,5.51-2.43v-15.41c-1.37,1.79-3.25,3.06-5.51,3.68Z"/><path d="M439.86,31.84c2.27,.62,4.14,1.89,5.51,3.68v-15.02c-1.48-1.2-3.34-2.16-5.51-2.79v14.14Z"/><path d="M448.4,24.2c-.51-1.01-1.19-1.95-2.03-2.79v15.68c.98,1.86,1.53,4.09,1.53,6.61s-.55,4.75-1.53,6.61v16.29c1.88-1.42,3.42-3.16,4.53-5.2,.25,.86,.59,1.65,.99,2.4V18h-3.49v6.2Z"/><path d="M452.89,65.38c1.42,1.88,3.33,3.24,5.51,4.11V18h-5.51v47.38Z"/><path d="M464.5,18h-5.1v51.85c1.58,.5,3.27,.76,5,.76,.17,0,.34-.02,.51-.02v-17.34c-.26-.62-.41-1.36-.41-2.24V18Z"/><path d="M465.91,54.7v15.84c1.85-.15,3.71-.59,5.51-1.31v-13.92c-.78,.34-1.6,.5-2.42,.5-1.14,0-2.25-.35-3.09-1.11Z"/><path d="M472.42,68.78c1.1-.52,2.16-1.13,3.18-1.87l-3.18-11.21v13.08Z"/><rect x="482.1" y="18" width="2.35" height="52"/><rect x="485.45" y="18" width="5.51" height="52"/><rect x="491.96" y="18" width="5.51" height="52"/><path d="M498.48,23.55v46.45h.22v-29c0-5.1,2.15-7.98,5.29-9.03v-13.24c-2.26,1.21-3.98,2.9-5.51,4.82Z"/><path d="M504.99,31.7c.64-.13,1.31-.2,2.01-.2,1.3,0,2.48,.2,3.5,.61v-15.21c-2.15,.19-3.95,.66-5.51,1.35v13.46Z"/><path d="M511.5,16.83v15.79c1.86,1.17,3,3.3,3,6.68v30.7h2.52V17.2c-1.39-.26-2.83-.4-4.32-.4-.41,0-.81,.01-1.2,.03Z"/><path d="M518.02,70h5.51V19.72c-1.65-1.07-3.5-1.85-5.51-2.32v52.6Z"/><path d="M531.04,34.55c-.11-2.21-.45-4.2-1-5.98-1.1-3.55-3.02-6.26-5.51-8.17v49.6h6.57V36c0-.5-.03-.97-.06-1.45Z"/></svg>