<svg width="33" height="34" viewBox="0 0 33 34" fill="none" xmlns="http://www.w3.org/2000/svg">
<g clip-path="url(#clip0_219_264)">
<path fill-rule="evenodd" clip-rule="evenodd" d="M0 17.0949C0 25.5467 5.95788 32.5748 13.75 34V21.7218H9.625V17H13.75V13.2218C13.75 8.97175 16.4079 6.61158 20.1671 6.61158C21.3579 6.61158 22.6421 6.8 23.8329 6.98842V11.3333H21.725C19.7079 11.3333 19.25 12.3717 19.25 13.6949V17H23.65L22.9171 21.7218H19.25V34C27.0421 32.5748 33 25.5482 33 17.0949C33 7.6925 25.575 0 16.5 0C7.425 0 0 7.6925 0 17.0949Z" fill="#EEEAB8"/>
</g>
<defs>
<clipPath id="clip0_219_264">
<rect width="33" height="34" fill="white"/>
</clipPath>
</defs>
</svg>
