<svg width="33" height="34" viewBox="0 0 33 34" fill="none" xmlns="http://www.w3.org/2000/svg">
<path fill-rule="evenodd" clip-rule="evenodd" d="M10.2644 1.51013C11.8772 1.43363 12.3915 1.41663 16.5 1.41663C20.6085 1.41663 21.1228 1.43504 22.7343 1.51013C24.3458 1.58521 25.4457 1.85013 26.4082 2.23404C27.4161 2.62646 28.3305 3.23988 29.0868 4.03321C29.8567 4.81096 30.4508 5.75163 30.8303 6.79146C31.2043 7.78313 31.46 8.91646 31.5343 10.574C31.6085 12.2385 31.625 12.7684 31.625 17C31.625 21.233 31.6071 21.7628 31.5343 23.4245C31.4614 25.082 31.2043 26.2154 30.8303 27.207C30.4507 28.247 29.8558 29.1892 29.0868 29.9681C28.3305 30.7615 27.4161 31.3735 26.4082 31.7645C25.4457 32.1498 24.3457 32.4133 22.737 32.4898C21.1227 32.5663 20.6085 32.5833 16.5 32.5833C12.3915 32.5833 11.8772 32.5649 10.2644 32.4898C8.65563 32.4147 7.55562 32.1498 6.59313 31.7645C5.58377 31.3734 4.66925 30.7604 3.91325 29.9681C3.14377 29.1899 2.54831 28.2481 2.16838 27.2085C1.79575 26.2168 1.54 25.0835 1.46575 23.426C1.3915 21.7614 1.375 21.2315 1.375 17C1.375 12.767 1.39287 12.2371 1.46575 10.5768C1.53862 8.91646 1.79575 7.78313 2.16838 6.79146C2.54887 5.75174 3.14479 4.80999 3.91462 4.03179C4.66956 3.23917 5.58315 2.62567 6.59175 2.23404C7.55425 1.85013 8.65425 1.58663 10.263 1.51013H10.2644ZM22.6119 4.31513C21.0169 4.24004 20.5384 4.22446 16.5 4.22446C12.4616 4.22446 11.9831 4.24004 10.3881 4.31513C8.91275 4.38454 8.1125 4.63813 7.579 4.85204C6.87363 5.13538 6.369 5.47113 5.83963 6.01654C5.33781 6.51953 4.95162 7.13186 4.70937 7.80863C4.50175 8.35829 4.25563 9.18279 4.18825 10.7029C4.11538 12.3462 4.10025 12.8392 4.10025 17C4.10025 21.1607 4.11538 21.6537 4.18825 23.297C4.25563 24.8171 4.50175 25.6416 4.70937 26.1913C4.95138 26.867 5.33775 27.4805 5.83963 27.9834C6.32775 28.5005 6.92313 28.8985 7.579 29.1479C8.1125 29.3618 8.91275 29.6154 10.3881 29.6848C11.9831 29.7599 12.4602 29.7755 16.5 29.7755C20.5397 29.7755 21.0169 29.7599 22.6119 29.6848C24.0872 29.6154 24.8875 29.3618 25.421 29.1479C26.1264 28.8645 26.631 28.5288 27.1604 27.9834C27.6623 27.4805 28.0486 26.867 28.2906 26.1913C28.4983 25.6416 28.7444 24.8171 28.8118 23.297C28.8846 21.6537 28.8997 21.1607 28.8997 17C28.8997 12.8392 28.8846 12.3462 28.8118 10.7029C28.7444 9.18279 28.4983 8.35829 28.2906 7.80863C28.0156 7.08188 27.6898 6.56196 27.1604 6.01654C26.6721 5.49956 26.0778 5.10167 25.421 4.85204C24.8875 4.63813 24.0872 4.38454 22.6119 4.31513ZM14.5681 21.8039C15.647 22.2666 16.8484 22.3291 17.967 21.9806C19.0857 21.6321 20.0522 20.8943 20.7015 19.8931C21.3508 18.892 21.6426 17.6897 21.5271 16.4915C21.4116 15.2934 20.8959 14.1737 20.0681 13.3237C19.5405 12.7804 18.9024 12.3644 18.2 12.1056C17.4975 11.8468 16.7481 11.7517 16.0057 11.8272C15.2633 11.9026 14.5463 12.1467 13.9065 12.5419C13.2666 12.9371 12.7198 13.4735 12.3053 14.1126C11.8908 14.7516 11.619 15.4775 11.5095 16.2377C11.3999 16.998 11.4553 17.7739 11.6717 18.5094C11.8882 19.245 12.2602 19.922 12.761 20.4916C13.2618 21.0613 13.879 21.5095 14.5681 21.8039ZM11.0027 11.3361C11.7247 10.5923 12.5817 10.0023 13.5249 9.5998C14.4681 9.19727 15.4791 8.99009 16.5 8.99009C17.5209 8.99009 18.5319 9.19727 19.4751 9.5998C20.4183 10.0023 21.2753 10.5923 21.9972 11.3361C22.7192 12.0799 23.2918 12.9629 23.6825 13.9347C24.0732 14.9065 24.2743 15.9481 24.2743 17C24.2743 18.0518 24.0732 19.0934 23.6825 20.0652C23.2918 21.037 22.7192 21.92 21.9972 22.6638C20.5393 24.1659 18.5619 25.0098 16.5 25.0098C14.4381 25.0098 12.4607 24.1659 11.0027 22.6638C9.54479 21.1616 8.72571 19.1243 8.72571 17C8.72571 14.8756 9.54479 12.8383 11.0027 11.3361ZM25.9985 10.183C26.1774 10.0091 26.3206 9.80001 26.4197 9.56809C26.5187 9.33617 26.5716 9.08613 26.5752 8.83278C26.5788 8.57942 26.533 8.3279 26.4405 8.09311C26.3481 7.85831 26.2108 7.64502 26.0369 7.46585C25.863 7.28668 25.656 7.14528 25.4281 7.05003C25.2002 6.95477 24.9561 6.90759 24.7102 6.91128C24.4643 6.91498 24.2216 6.96947 23.9965 7.07153C23.7714 7.17359 23.5685 7.32114 23.3997 7.50546C23.0716 7.86392 22.8919 8.34005 22.8988 8.83278C22.9058 9.32551 23.0989 9.79604 23.4371 10.1445C23.7753 10.4929 24.232 10.6919 24.7102 10.699C25.1885 10.7062 25.6506 10.5211 25.9985 10.183Z" fill="#EEEAB8"/>
</svg>
